<?xml version="1.0" encoding="UTF-8" standalone="no"?>
<svg width="38px" height="42px" viewBox="0 0 38 42" version="1.1" xmlns="http://www.w3.org/2000/svg" xmlns:xlink="http://www.w3.org/1999/xlink" xmlns:sketch="http://www.bohemiancoding.com/sketch/ns">
    <!-- Generator: Sketch 3.2.2 (9983) - http://www.bohemiancoding.com/sketch -->
    <title>arrow-up</title>
    <desc>Created with Sketch.</desc>
    <defs></defs>
    <g id="Page-1" stroke="none" stroke-width="1" fill="none" fill-rule="evenodd" sketch:type="MSPage">
        <path d="M34.5406143,23.1226195 C34.1160074,22.8616418 33.5215577,23.0356269 33.3517149,23.4705896 L19,39.9121791 L4.64828511,23.4705896 C4.39352094,23.0356269 3.8839926,22.9486344 3.45938565,23.1226195 C3.0347787,23.3835971 2.86493592,23.9055523 3.11970009,24.2535224 L18.1507861,41.5650373 C18.3206289,41.8260149 18.6603144,42 19,42 C19.3396856,42 19.6793711,41.8260149 19.8492139,41.5650373 L34.8802999,24.340515 C35.1350641,23.9055523 34.9652213,23.3835971 34.5406143,23.1226195 L34.5406143,23.1226195 L34.5406143,23.1226195 Z" id="arrow-up-bottom" fill="#FFFFFF" sketch:type="MSShapeGroup" transform="translate(19.000000, 32.500000) rotate(-180.000000) translate(-19.000000, -32.500000) "></path>
        <path d="M34.5406143,0.122619458 C34.1160074,-0.138358154 33.5215577,0.0356269205 33.3517149,0.470589606 L19,16.9121791 L4.64828511,0.470589606 C4.39352094,0.0356269205 3.8839926,-0.0513656166 3.45938565,0.122619458 C3.0347787,0.383597069 2.86493592,0.905552291 3.11970009,1.25352244 L18.1507861,18.5650373 C18.3206289,18.8260149 18.6603144,19 19,19 C19.3396856,19 19.6793711,18.8260149 19.8492139,18.5650373 L34.8802999,1.34051498 C35.1350641,0.905552291 34.9652213,0.383597069 34.5406143,0.122619458 L34.5406143,0.122619458 L34.5406143,0.122619458 Z" id="arrow-up-top" fill="#FFFFFF" sketch:type="MSShapeGroup" transform="translate(19.000000, 9.500000) rotate(-180.000000) translate(-19.000000, -9.500000) "></path>
    </g>
</svg>